<svg width="24" height="24" viewBox="0 0 24 24" fill="none" xmlns="http://www.w3.org/2000/svg">
<path fill-rule="evenodd" clip-rule="evenodd" d="M10.5005 4.53704C10.4484 3.64109 11.2313 3 11.9997 3C12.768 3 13.5509 3.64109 13.4988 4.53704L13.1245 14.6426C13.12 14.9346 13.002 15.2137 12.7951 15.4205C12.5842 15.6315 12.298 15.75 11.9997 15.75C11.7013 15.75 11.4151 15.6315 11.2042 15.4205C10.9973 15.2137 10.8794 14.9346 10.8748 14.6426L10.5005 4.53704Z" fill="black"/>
<path fill-rule="evenodd" clip-rule="evenodd" d="M10.5 19.5C10.5 18.6716 11.1716 18 12 18C12.8284 18 13.5 18.6716 13.5 19.5C13.5 20.3284 12.8284 21 12 21C11.1716 21 10.5 20.3284 10.5 19.5Z" fill="black"/>
</svg>
