<svg width="24" height="24" viewBox="0 0 24 24" fill="none" xmlns="http://www.w3.org/2000/svg">
<path d="M6.97913 4.07401C7.86419 3.92321 8.77181 3.97296 9.63509 4.21958C10.4984 4.46621 11.2953 4.90343 11.9671 5.49901L12.0041 5.53201L12.0381 5.50201C12.6793 4.93931 13.4331 4.51981 14.2493 4.27149C15.0655 4.02318 15.9252 3.95177 16.7711 4.06201L17.0171 4.09801C18.0834 4.28212 19.0801 4.75117 19.9016 5.45548C20.7231 6.1598 21.3388 7.07316 21.6836 8.09885C22.0283 9.12454 22.0893 10.2244 21.86 11.2819C21.6307 12.3394 21.1197 13.3152 20.3811 14.106L20.2011 14.291L20.1531 14.332L12.7031 21.711C12.5312 21.8812 12.3034 21.9832 12.062 21.9983C11.8206 22.0134 11.5819 21.9405 11.3901 21.793L11.2961 21.711L3.80313 14.289C3.00935 13.5167 2.44483 12.5397 2.17209 11.4663C1.89935 10.3929 1.92903 9.26491 2.25785 8.20733C2.58666 7.14974 3.20179 6.20381 4.03509 5.47428C4.86839 4.74476 5.88735 4.26011 6.97913 4.07401Z" fill="#FF4242"/>
</svg>
