<svg width="18" height="18" viewBox="0 0 18 18" fill="none" xmlns="http://www.w3.org/2000/svg">
<mask id="mask0_833_4774" style="mask-type:alpha" maskUnits="userSpaceOnUse" x="0" y="0" width="18" height="18">
<path fill-rule="evenodd" clip-rule="evenodd" d="M6.30845 3.75814C5.89664 3.71421 5.48018 3.75602 5.08532 3.88094C4.69046 4.00587 4.32573 4.2112 4.01412 4.484C3.70251 4.75681 3.45076 5.09118 3.27473 5.46606C3.09869 5.84094 3.00218 6.2482 2.99127 6.66222C2.98037 7.07623 3.0553 7.48801 3.21136 7.87164C3.36742 8.25526 3.60122 8.60242 3.89803 8.89125L3.90277 8.89586L3.90275 8.89588L8.99998 13.9442L14.0972 8.89588C14.1128 8.8805 14.1288 8.86592 14.1453 8.85217C14.4181 8.57237 14.6337 8.2418 14.7799 7.87895C14.9342 7.496 15.0078 7.08532 14.996 6.67262C14.9843 6.25993 14.8875 5.8541 14.7117 5.48053C14.5359 5.10697 14.2849 4.77371 13.9744 4.50162C13.6638 4.22952 13.3005 4.02445 12.9071 3.89923C12.5137 3.77402 12.0987 3.73135 11.688 3.77391C11.2773 3.81647 10.8799 3.94333 10.5205 4.14656C10.1611 4.34979 9.84755 4.62501 9.59943 4.955C9.45731 5.14401 9.23437 5.25492 8.99789 5.25426C8.76141 5.25361 8.5391 5.14145 8.39803 4.95166C8.15098 4.61926 7.83778 4.34161 7.47816 4.1362C7.11853 3.93079 6.72027 3.80207 6.30845 3.75814ZM15.101 10.0129L9.52775 15.5326C9.23545 15.8221 8.76451 15.8221 8.47222 15.5326L2.84945 9.96386C2.4054 9.5311 2.05557 9.01122 1.82192 8.43685C1.58784 7.86141 1.47544 7.24373 1.49179 6.62272C1.50815 6.0017 1.65292 5.3908 1.91697 4.82848C2.18103 4.26616 2.55865 3.76461 3.02607 3.3554C3.49348 2.94619 4.04057 2.6382 4.63286 2.45081C5.22516 2.26342 5.84984 2.2007 6.46756 2.2666C7.08529 2.33249 7.68268 2.52558 8.22212 2.83369C8.50265 2.99393 8.76435 3.18347 9.00306 3.39862C9.24153 3.18607 9.50259 2.99896 9.78212 2.84088C10.3212 2.53603 10.9174 2.34574 11.5334 2.2819C12.1494 2.21807 12.7719 2.28206 13.362 2.46989C13.9522 2.65771 14.4972 2.96532 14.9629 3.37346C15.4287 3.7816 15.8052 4.28149 16.0689 4.84184C16.3326 5.40218 16.4778 6.01093 16.4954 6.62997C16.513 7.24901 16.4027 7.86503 16.1713 8.43946C15.9398 9.01389 15.5924 9.53437 15.1505 9.96833C15.1345 9.98406 15.118 9.99891 15.101 10.0129Z" fill="black"/>
</mask>
<g mask="url(#mask0_833_4774)">
<rect width="17.9999" height="18" fill="white"/>
</g>
</svg>
