<svg width="20" height="20" viewBox="0 0 20 20" fill="none" xmlns="http://www.w3.org/2000/svg">
<path fill-rule="evenodd" clip-rule="evenodd" d="M9.38932 0.752953C9.72659 0.415682 10.2734 0.415682 10.6107 0.752953L19.247 9.38929C19.494 9.63629 19.5679 10.0078 19.4342 10.3305C19.3006 10.6532 18.9856 10.8636 18.6363 10.8636H17.5808V16.7171C17.5808 17.4552 17.2876 18.163 16.7657 18.6849C16.2438 19.2068 15.536 19.4999 14.798 19.4999H5.20203C4.46398 19.4999 3.75616 19.2068 3.23428 18.6849C2.7124 18.163 2.41921 17.4552 2.41921 16.7171V10.8636H1.36366C1.01435 10.8636 0.69944 10.6532 0.565765 10.3305C0.432091 10.0078 0.50598 9.63629 0.752978 9.38929L9.38932 0.752953ZM3.43525 9.14975C3.83954 9.22173 4.14648 9.57501 4.14648 9.99997V16.7171C4.14648 16.9971 4.25769 17.2656 4.45564 17.4635C4.6536 17.6615 4.92208 17.7727 5.20203 17.7727H14.798C15.0779 17.7727 15.3464 17.6615 15.5444 17.4635C15.7423 17.2656 15.8535 16.9971 15.8535 16.7171V9.99997C15.8535 9.57501 16.1605 9.22173 16.5647 9.14975L10 2.585L3.43525 9.14975Z" fill="black"/>
<path fill-rule="evenodd" clip-rule="evenodd" d="M9.04063 11.8232C8.76068 11.8232 8.4922 11.9344 8.29425 12.1324C8.09629 12.3303 7.98508 12.5988 7.98508 12.8788V18.6363C7.98508 19.1133 7.59842 19.5 7.12145 19.5C6.64447 19.5 6.25781 19.1133 6.25781 18.6363V12.8788C6.25781 12.1407 6.551 11.4329 7.07288 10.911C7.59476 10.3891 8.30258 10.0959 9.04063 10.0959H10.9598C11.6979 10.0959 12.4057 10.3891 12.9276 10.911C13.4495 11.4329 13.7426 12.1407 13.7426 12.8788V18.6363C13.7426 19.1133 13.356 19.5 12.879 19.5C12.402 19.5 12.0154 19.1133 12.0154 18.6363V12.8788C12.0154 12.5988 11.9042 12.3303 11.7062 12.1324C11.5083 11.9344 11.2398 11.8232 10.9598 11.8232H9.04063Z" fill="black"/>
</svg>
