<svg width="22" height="20" viewBox="0 0 22 20" fill="none" xmlns="http://www.w3.org/2000/svg">
<g clip-path="url(#clip0_91_333)">
<path d="M11.7068 0.292786L20.7068 9.29279C21.3368 9.92279 20.8908 10.9998 19.9998 10.9998H18.9998V16.9998C18.9998 17.7954 18.6837 18.5585 18.1211 19.1211C17.5585 19.6837 16.7954 19.9998 15.9998 19.9998H14.9998V12.9998C14.9998 12.2346 14.7075 11.4983 14.1825 10.9415C13.6576 10.3848 12.9397 10.0497 12.1758 10.0048L11.9998 9.99979H9.99979C9.20415 9.99979 8.44108 10.3159 7.87847 10.8785C7.31587 11.4411 6.99979 12.2041 6.99979 12.9998V19.9998H5.99979C5.20415 19.9998 4.44108 19.6837 3.87847 19.1211C3.31587 18.5585 2.99979 17.7954 2.99979 16.9998V10.9998H1.99979C1.10979 10.9998 0.662795 9.92279 1.29279 9.29279L10.2928 0.292786C10.4803 0.105315 10.7346 0 10.9998 0C11.265 0 11.5193 0.105315 11.7068 0.292786ZM11.9998 11.9998C12.265 11.9998 12.5194 12.1051 12.7069 12.2927C12.8944 12.4802 12.9998 12.7346 12.9998 12.9998V19.9998H8.99979V12.9998C8.99983 12.7549 9.08975 12.5184 9.25251 12.3354C9.41527 12.1524 9.63954 12.0354 9.8828 12.0068L9.99979 11.9998H11.9998Z" fill="black"/>
</g>
<defs>
<clipPath id="clip0_91_333">
<rect width="22" height="20" fill="white"/>
</clipPath>
</defs>
</svg>
