<svg width="24" height="24" viewBox="0 0 24 24" fill="none" xmlns="http://www.w3.org/2000/svg">
<path d="M12.6714 2.77815L21.2198 11.3282C21.8182 11.9267 21.3946 12.9499 20.5483 12.9499H19.5985V18.65C19.5985 19.4058 19.2983 20.1308 18.7639 20.6652C18.2295 21.1997 17.5047 21.5 16.749 21.5H15.7992V14.8499C15.7992 14.123 15.5215 13.4235 15.0229 12.8946C14.5243 12.3656 13.8425 12.0473 13.1169 12.0046L12.9497 11.9999H11.0501C10.2943 11.9999 9.56957 12.3002 9.03519 12.8347C8.50081 13.3691 8.2006 14.0941 8.2006 14.8499V21.5H7.25078C6.49505 21.5 5.77028 21.1997 5.2359 20.6652C4.70152 20.1308 4.40131 19.4058 4.40131 18.65V12.9499H3.45148C2.60614 12.9499 2.18157 11.9267 2.77996 11.3282L11.3284 2.77815C11.5065 2.60005 11.748 2.5 11.9999 2.5C12.2518 2.5 12.4933 2.60005 12.6714 2.77815ZM12.9497 13.8999C13.2016 13.8999 13.4432 14 13.6214 14.1782C13.7995 14.3563 13.8995 14.598 13.8995 14.8499V21.5H10.1003V14.8499C10.1003 14.6172 10.1857 14.3927 10.3403 14.2188C10.4949 14.0449 10.7079 13.9338 10.9389 13.9066L11.0501 13.8999H12.9497Z" fill="black"/>
</svg>
