<svg width="42" height="42" viewBox="0 0 42 42" fill="none" xmlns="http://www.w3.org/2000/svg">
<circle cx="21" cy="21" r="21" fill="#FEE102"/>
<g clip-path="url(#clip0_207_7041)">
<path d="M21 10.5C14.2343 10.5 8.75 15.0502 8.75 20.6663C8.75 24.3205 11.0723 27.5231 14.5604 29.315C14.3037 30.3178 13.6329 32.9522 13.4987 33.5156C13.3322 34.2148 13.7416 34.2051 14.0122 34.0182C14.2227 33.8701 17.3685 31.6241 18.7263 30.6553C19.4641 30.7694 20.2228 30.8301 21 30.8301C27.7657 30.8301 33.25 26.2799 33.25 20.6638C33.25 15.0478 27.7657 10.5 21 10.5Z" fill="#3C1B1B"/>
<path d="M12.4528 18.7943H13.7134C13.7134 18.7943 13.7204 22.4291 13.7134 23.2765C13.7134 23.8957 15.0249 23.9029 15.0226 23.2862L15.0273 18.8429C15.0273 18.8429 15.4505 18.8453 16.2809 18.8453C17.0651 18.8453 17.0651 17.5511 16.2809 17.5511C15.3973 17.5511 12.4459 17.5269 12.4459 17.5269C11.7057 17.5269 11.708 18.7967 12.4459 18.7967" fill="#FBE600"/>
<mask id="mask0_207_7041" style="mask-type:luminance" maskUnits="userSpaceOnUse" x="11" y="17" width="6" height="7">
<path d="M12.4528 18.7943H13.7134C13.7134 18.7943 13.7204 22.4291 13.7134 23.2765C13.7134 23.8957 15.0249 23.9029 15.0226 23.2862L15.0273 18.8429C15.0273 18.8429 15.4505 18.8453 16.2809 18.8453C17.0651 18.8453 17.0651 17.5511 16.2809 17.5511C15.3973 17.5511 12.4459 17.5269 12.4459 17.5269C11.7057 17.5269 11.708 18.7967 12.4459 18.7967" fill="white"/>
</mask>
<g mask="url(#mask0_207_7041)">
<path d="M17.07 17.5244H11.7129V23.9029H17.07V17.5244Z" fill="#FBE600"/>
</g>
<path d="M18.4877 19.03L19.1886 21.3366H17.7267L18.4877 19.03ZM17.7013 17.9495C17.3913 18.6657 16.2695 22.0529 15.8994 22.9513C15.6311 23.5996 16.7899 24.1313 17.0582 23.4806L17.3104 22.5555H19.6165C19.6165 22.5555 19.5378 22.5943 19.8432 23.4417C20.0907 24.1289 21.2888 23.653 21.0413 22.9658C20.6874 21.9849 19.4615 18.4497 19.2372 17.9495C19.1354 17.7188 18.7653 17.5513 18.4068 17.5513C18.1107 17.5513 17.8216 17.6654 17.699 17.9495" fill="#FBE600"/>
<mask id="mask1_207_7041" style="mask-type:luminance" maskUnits="userSpaceOnUse" x="15" y="17" width="7" height="7">
<path d="M18.4877 19.03L19.1886 21.3366H17.7267L18.4877 19.03ZM17.7013 17.9495C17.3913 18.6657 16.2695 22.0529 15.8994 22.9513C15.6311 23.5996 16.7899 24.1313 17.0582 23.4806L17.3104 22.5555H19.6165C19.6165 22.5555 19.5378 22.5943 19.8432 23.4417C20.0907 24.1289 21.2888 23.653 21.0413 22.9658C20.6874 21.9849 19.4615 18.4497 19.2372 17.9495C19.1354 17.7188 18.7653 17.5513 18.4068 17.5513C18.1107 17.5513 17.8216 17.6654 17.699 17.9495" fill="white"/>
</mask>
<g mask="url(#mask1_207_7041)">
<path d="M21.2913 17.5513H15.6289V24.1313H21.2913V17.5513Z" fill="#FBE600"/>
</g>
<path d="M21.4854 18.1607C21.4854 19.3116 21.4923 23.0217 21.4923 23.0217C21.4923 23.0217 21.3905 23.7598 21.9942 23.7598C22.5979 23.7598 23.9326 23.7525 24.5247 23.7525C25.1169 23.7525 25.1146 22.4292 24.5224 22.4292C23.9303 22.4292 22.8478 22.422 22.8478 22.422C22.8478 22.422 22.8524 18.9911 22.8501 18.1559C22.8501 17.7528 22.5077 17.5513 22.1677 17.5513C21.8277 17.5513 21.4831 17.7552 21.4854 18.1583" fill="#FBE600"/>
<mask id="mask2_207_7041" style="mask-type:luminance" maskUnits="userSpaceOnUse" x="21" y="17" width="4" height="7">
<path d="M21.4854 18.1607C21.4854 19.3116 21.4923 23.0217 21.4923 23.0217C21.4923 23.0217 21.3905 23.7598 21.9942 23.7598C22.5979 23.7598 23.9326 23.7525 24.5247 23.7525C25.1169 23.7525 25.1146 22.4292 24.5224 22.4292C23.9303 22.4292 22.8478 22.422 22.8478 22.422C22.8478 22.422 22.8524 18.9911 22.8501 18.1559C22.8501 17.7528 22.5077 17.5513 22.1677 17.5513C21.8277 17.5513 21.4831 17.7552 21.4854 18.1583" fill="white"/>
</mask>
<g mask="url(#mask2_207_7041)">
<path d="M25.117 17.5513H21.3906V23.7574H25.117V17.5513Z" fill="#FBE600"/>
</g>
<path d="M25.274 17.9762C25.2879 18.4812 25.2578 23.046 25.2578 23.3835C25.2578 23.9176 26.5531 23.9152 26.5531 23.3835C26.5531 22.7643 26.5531 21.5867 26.5531 21.5867L26.9325 21.2662L28.5956 23.6457C28.931 24.1119 29.988 23.2694 29.6526 22.8056L27.8878 20.3654C27.8878 20.3654 29.0859 19.0057 29.5578 18.5128C29.8331 18.2263 28.9795 17.323 28.7043 17.612C28.4383 17.8888 26.5601 19.8628 26.5601 19.8628C26.5601 19.8628 26.5763 18.6245 26.5601 17.9398C26.5531 17.68 26.2501 17.5537 25.9379 17.5537C25.6048 17.5537 25.2648 17.697 25.2717 17.9762" fill="#FBE600"/>
<mask id="mask3_207_7041" style="mask-type:luminance" maskUnits="userSpaceOnUse" x="25" y="17" width="5" height="7">
<path d="M25.274 17.9762C25.2879 18.4812 25.2578 23.046 25.2578 23.3835C25.2578 23.9176 26.5531 23.9152 26.5531 23.3835C26.5531 22.7643 26.5531 21.5867 26.5531 21.5867L26.9325 21.2662L28.5956 23.6457C28.931 24.1119 29.988 23.2694 29.6526 22.8056L27.8878 20.3654C27.8878 20.3654 29.0859 19.0057 29.5578 18.5128C29.8331 18.2263 28.9795 17.323 28.7043 17.612C28.4383 17.8888 26.5601 19.8628 26.5601 19.8628C26.5601 19.8628 26.5763 18.6245 26.5601 17.9398C26.5531 17.68 26.2501 17.5537 25.9379 17.5537C25.6048 17.5537 25.2648 17.697 25.2717 17.9762" fill="white"/>
</mask>
<g mask="url(#mask3_207_7041)">
<path d="M29.988 17.3257H25.2578V24.1145H29.988V17.3257Z" fill="#FBE600"/>
</g>
</g>
<defs>
<clipPath id="clip0_207_7041">
<rect width="24.5" height="23.625" fill="white" transform="translate(8.75 10.5)"/>
</clipPath>
</defs>
</svg>
