<svg width="24" height="24" viewBox="0 0 24 24" fill="none" xmlns="http://www.w3.org/2000/svg">
<mask id="mask0_207_7078" style="mask-type:alpha" maskUnits="userSpaceOnUse" x="0" y="0" width="24" height="24">
<mask id="mask1_207_7078" style="mask-type:luminance" maskUnits="userSpaceOnUse" x="2" y="2" width="20" height="20">
<path d="M22 2H2V22H22V2Z" fill="white"/>
</mask>
<g mask="url(#mask1_207_7078)">
<path fill-rule="evenodd" clip-rule="evenodd" d="M12.2132 5.50347L11.731 6.06798C11.3275 6.54041 10.6173 6.59626 10.1449 6.19272C9.67248 5.78919 9.61663 5.07907 10.0202 4.60663L10.5327 4.00663C10.5518 3.98425 10.5718 3.96263 10.5926 3.94181C11.8408 2.69363 13.5393 1.9873 15.3131 1.9873C17.0869 1.9873 18.7854 2.69363 20.0336 3.94181C21.2818 5.18999 21.9881 6.88851 21.9881 8.6623C21.9881 10.4361 21.2818 12.1346 20.0336 13.3828C20.0155 13.4009 19.9969 13.4183 19.9776 13.4351L19.3901 13.9476C18.9219 14.356 18.2113 14.3076 17.8028 13.8393C17.3944 13.3711 17.4428 12.6605 17.911 12.252L18.468 11.7661C19.279 10.9418 19.7381 9.82639 19.7381 8.6623C19.7381 7.4861 19.2694 6.35962 18.4426 5.5328C17.6158 4.70598 16.4893 4.2373 15.3131 4.2373C14.1509 4.2373 13.0372 4.6949 12.2132 5.50347ZM16.1211 7.87931C16.5604 8.31865 16.5604 9.03096 16.1211 9.4703L9.45858 16.1328C9.01924 16.5721 8.30693 16.5721 7.86759 16.1328C7.42825 15.6935 7.42825 14.9811 7.86759 14.5418L14.5301 7.87931C14.9694 7.43997 15.6817 7.43997 16.1211 7.87931ZM6.17335 10.1353C6.58179 10.6035 6.53333 11.3141 6.06513 11.7226L5.50812 12.2085C5.1125 12.6106 4.79093 13.0902 4.5641 13.62C4.34287 14.1659 4.22559 14.7442 4.22559 15.3123C4.22559 15.8833 4.34405 16.4645 4.56744 17.0128C4.78379 17.5439 5.10883 18.0271 5.52394 18.4323L5.52406 18.4324C6.38076 19.2689 7.51285 19.7373 8.70059 19.7373C9.86498 19.7373 10.981 19.2876 11.8146 18.4931L12.1983 17.9779C12.5694 17.4796 13.2742 17.3764 13.7725 17.7475C14.2708 18.1186 14.374 18.8234 14.0029 19.3217L13.5654 19.9092C13.5315 19.9548 13.4942 19.9977 13.4538 20.0375C12.1932 21.2832 10.4841 21.9873 8.70059 21.9873C6.91337 21.9873 5.22052 21.2807 3.95223 20.0423C3.31734 19.4225 2.81738 18.6807 2.48373 17.8618C2.15712 17.0601 1.97559 16.1913 1.97559 15.3123C1.97559 14.4333 2.15712 13.5645 2.48373 12.7628L2.49056 12.7465C2.83372 11.9408 3.32694 11.2075 3.94259 10.5918C3.96064 10.5738 3.97931 10.5563 3.99855 10.5395L4.58605 10.027C5.05425 9.6186 5.76491 9.66706 6.17335 10.1353Z" fill="black"/>
</g>
</mask>
<g mask="url(#mask0_207_7078)">
<rect width="24" height="24" fill="white"/>
</g>
</svg>
