<svg width="71" height="26" viewBox="0 0 71 26" fill="none" xmlns="http://www.w3.org/2000/svg">
<g id="LOGO">
<g id="&#237;&#148;&#189;">
<path id="Vector" d="M69.0213 2.29536C68.7004 1.83274 68.343 1.4055 67.8433 1.13005C67.1867 0.768628 66.4819 0.758736 65.7751 0.92385C65.0259 1.09886 64.4805 1.54284 64.1965 2.2733C63.9124 3.00375 63.8388 3.76313 63.9458 4.53543C64.0434 5.2385 64.1441 5.94042 64.1919 6.64958C64.2497 7.5052 64.2322 8.36045 64.2094 9.21569C64.195 9.76011 64.171 10.3045 64.1019 10.8463C64.0062 11.6 63.909 12.3536 63.8346 13.1092C63.7693 13.7712 64.0472 14.2981 64.5975 14.642C65.9434 15.4832 67.6773 15.3652 68.88 14.2874C69.3524 13.864 69.641 13.3276 69.8226 12.7295C70.3413 11.0224 70.5494 9.27466 70.4985 7.49379C70.4784 6.86453 70.4108 6.24136 70.2995 5.62275C70.0857 4.43157 69.717 3.30088 69.0201 2.29536H69.0213Z" fill="black"/>
<path id="Vector_2" d="M66.1843 16.0082C65.4867 15.7928 64.7739 15.6494 64.0539 15.5493C62.8121 15.3766 61.5634 15.2796 60.4394 15.3161C58.953 15.2975 57.6011 15.3736 56.251 15.4736C55.6529 15.5181 55.0544 15.5786 54.4601 15.6715C53.8791 15.7624 53.2962 15.8396 52.7148 15.9256C51.8607 16.0515 51.0256 16.2475 50.2338 16.6032C49.2142 17.0612 48.6593 18.1786 48.8944 19.2712C49.0459 19.9751 49.4705 20.4864 50.0052 20.925C50.9572 21.7065 52.0851 22.0078 53.2825 22.0641C54.6109 22.1269 55.8876 21.8522 57.1119 21.3428C58.3572 20.825 59.4683 20.0949 60.4565 19.1761C60.5708 19.07 60.6987 18.9646 60.8605 19.059C61.0162 19.1499 61.0052 19.312 60.9809 19.4676C60.9771 19.4927 60.9703 19.517 60.9634 19.5414C60.8628 19.8952 60.7811 20.2539 60.7196 20.6161C60.6516 21.016 60.5677 21.4185 60.6327 21.8248C60.8643 23.2766 61.5528 24.4046 62.9059 25.0818C63.8541 25.5562 64.8195 25.638 65.8072 25.2705C66.8242 24.892 67.4834 24.1277 67.9604 23.1781C68.3079 22.4864 68.4606 21.7453 68.5452 20.9859C68.6671 19.8971 68.5722 18.8356 68.1343 17.8179C67.75 16.9254 67.1284 16.2988 66.1847 16.0078L66.1843 16.0082Z" fill="black"/>
<path id="Vector_3" d="M52.2573 14.8816C52.9974 14.9684 53.744 14.9726 54.4857 15.0395C54.9968 15.0856 55.508 15.0677 56.0188 15.089C57.0825 15.0924 58.1412 15.0247 59.1996 14.9246C59.9223 14.8562 60.6442 14.7911 61.3482 14.6077C61.8974 14.4647 62.3641 14.2014 62.6884 13.7274C63.0553 13.1906 63.1498 12.6032 63.094 11.9678C63.0165 11.0901 62.4275 10.3296 61.5715 10.0606C61.2355 9.95524 61.2301 9.94269 61.338 9.62083C61.7231 8.4715 61.7512 7.30695 61.4853 6.13213C61.4508 5.97957 61.4777 5.90614 61.6414 5.85212C62.0592 5.7144 62.4735 5.56298 62.7917 5.2415C63.3944 4.63241 63.5626 3.8913 63.4498 3.08056C63.353 2.38435 62.9709 1.86808 62.344 1.51312C61.8602 1.2392 61.3236 1.15018 60.7919 1.04746C59.9154 0.878157 59.0325 0.755273 58.1401 0.679564C57.3073 0.6088 56.4756 0.538418 55.6405 0.512547C53.8804 0.458143 52.132 0.581789 50.395 0.861417C49.8865 0.943213 49.3996 1.08969 48.9492 1.34344C47.6873 2.05526 47.3763 3.5896 48.2729 4.7142C48.6052 5.13117 49.0423 5.40548 49.5515 5.57439C49.8922 5.68739 49.9138 5.72962 49.828 6.07316C49.5644 7.12852 49.5853 8.18312 49.8424 9.23619C49.9214 9.55996 49.9028 9.58506 49.5694 9.59648C49.1429 9.61094 48.7312 9.68779 48.3621 9.91111C47.7781 10.2642 47.4963 10.8033 47.4036 11.4481C47.2179 12.7405 47.7724 14.0131 49.3081 14.3992C50.2761 14.6427 51.2669 14.7656 52.2577 14.8816H52.2573ZM54.9672 9.25217C55.0682 8.70357 55.1518 8.15306 55.1996 7.59723C55.2403 7.12624 55.211 6.66247 55.0941 6.20289C55.0306 5.95408 55.0546 5.93277 55.3219 5.94C55.4837 5.94419 55.6455 5.94076 55.8076 5.94076C55.8076 5.94191 55.8076 5.94305 55.8076 5.94419C55.9823 5.94419 56.1574 5.94343 56.3321 5.94419C56.5443 5.94495 56.585 5.98794 56.5478 6.19604C56.4688 6.63927 56.4251 7.08553 56.3936 7.53484C56.3533 8.10703 56.37 8.67313 56.4942 9.23467C56.5079 9.29631 56.5136 9.35984 56.5273 9.42185C56.563 9.58278 56.5094 9.6448 56.3347 9.61702C55.9694 9.55881 55.5995 9.563 55.2304 9.56224C54.938 9.56186 54.914 9.54017 54.9668 9.25217H54.9672Z" fill="black"/>
</g>
<path id="&#235;&#152;&#144;" d="M45.0349 16.3938C44.198 16.059 43.3684 16.1077 42.5235 16.362C41.8335 16.5696 41.132 16.7454 40.4079 16.7822C39.9872 16.8036 39.5645 16.7929 39.1426 16.7887C38.8868 16.786 38.7998 16.6952 38.8059 16.4336C38.8174 15.9598 38.7898 15.4906 38.6931 15.0252C38.6559 14.8456 38.7093 14.7908 38.9006 14.8126C39.576 14.8896 40.2537 14.8773 40.9307 14.8609C41.9394 14.8364 42.9082 14.6303 43.8099 14.1618C44.4787 13.8144 45.046 13.3605 45.4326 12.6914C45.7666 12.113 45.7954 11.499 45.7624 10.8589C45.7195 10.0254 45.1898 9.25017 44.4024 8.96251C43.7121 8.71009 42.9998 8.70473 42.288 8.86215C42.0023 8.92535 41.7277 9.03797 41.4438 9.11189C41.1915 9.17739 41.1194 9.10194 41.1804 8.85105C41.2456 8.58369 41.3031 8.31518 41.3188 8.04054C41.3629 7.25379 41.3921 6.46933 41.012 5.73697C40.9226 5.5646 40.9855 5.48608 41.1945 5.52476C41.8385 5.64312 42.4794 5.57341 43.1233 5.52591C44.5374 5.42173 45.6236 3.9298 45.1718 2.54666C44.8841 1.66568 44.3591 1.05588 43.3976 0.901904C42.5687 0.76899 41.7319 0.74371 40.8965 0.712684C40.1421 0.684722 39.3889 0.755967 38.6437 0.86743C38.0699 0.953231 37.4927 1.05359 36.9642 1.31175C35.9823 1.7917 35.2406 2.49074 34.9399 3.57971C34.8942 3.74556 34.8739 3.91793 34.8041 4.07727C34.6952 4.32701 34.5445 4.43388 34.3454 4.3994C34.0673 4.35114 33.9415 4.20176 33.9308 3.91218C33.9185 3.58009 34.024 3.28247 34.2039 3.0109C34.5161 2.53938 34.8831 2.11728 35.3418 1.77906C35.5102 1.65457 35.5048 1.55996 35.3196 1.47148C35.1355 1.38338 34.9472 1.30026 34.7535 1.23821C33.5515 0.853641 32.3276 0.576323 31.0616 0.516953C30.3317 0.482863 29.598 0.490523 28.8854 0.644504C27.3064 0.985789 26.2053 1.95257 25.5391 3.39662C25.062 4.43081 24.9577 5.55962 24.8602 6.68C24.7958 7.41849 24.8265 8.15852 24.8518 8.89893C24.8928 10.0997 25.1272 11.2554 25.6265 12.3501C25.8747 12.8944 26.1976 13.3877 26.6805 13.7642C27.4345 14.3518 28.3209 14.5778 29.2398 14.7012C30.1081 14.8176 30.9822 14.8525 31.8593 14.7969C32.3188 14.7678 32.3576 14.8191 32.2766 15.2784C32.231 15.5369 32.1896 15.7947 32.2041 16.0571C32.2264 16.4662 32.0895 16.6167 31.6764 16.6259C31.3312 16.6336 30.9891 16.6114 30.6458 16.5654C30.1392 16.4972 29.6306 16.434 29.1447 16.2739C28.2894 15.992 27.4364 15.9219 26.5677 16.2088C26.0174 16.3903 25.5464 16.668 25.2442 17.184C24.6811 18.1458 24.6232 19.1785 24.8246 20.2414C24.9772 21.0461 25.4708 21.6153 26.1531 22.0302C26.6395 22.3259 27.1879 22.4638 27.7333 22.6013C29.1355 22.9544 30.5626 23.1571 32.0001 23.3015C33.3996 23.442 34.8026 23.5087 36.5734 23.529C37.1107 23.555 38.0108 23.4811 38.9087 23.4229C39.9975 23.3524 41.0822 23.2229 42.1522 22.9912C43.0221 22.8027 43.8743 22.563 44.6901 22.2033C45.5427 21.8275 46.1889 21.2403 46.4639 20.3333C46.7167 19.4994 46.6679 18.6575 46.396 17.8275C46.1682 17.1323 45.7133 16.6661 45.0345 16.3946L45.0349 16.3938ZM34.4394 9.69909C33.6654 9.51791 32.8795 9.52289 32.0937 9.55353C31.8597 9.56273 31.6273 9.61865 31.3953 9.65964C31.2215 9.69028 31.1874 9.66768 31.233 9.50182C31.3439 9.10002 31.396 8.69094 31.4348 8.27649C31.4796 7.7954 31.4302 7.33461 31.2323 6.89144C31.197 6.81253 31.121 6.72137 31.1893 6.64323C31.2668 6.55436 31.3738 6.62752 31.4559 6.6597C32.0005 6.87496 32.5727 6.91212 33.148 6.94008C33.5714 6.96076 33.9734 6.89373 34.3512 6.69455C34.4739 6.62982 34.5191 6.66008 34.523 6.81981C34.4171 7.18178 34.4398 7.5855 34.4501 7.98692C34.4601 8.3688 34.4628 8.75299 34.5583 9.12683C34.5867 9.23791 34.6288 9.34516 34.6584 9.45624C34.7125 9.66117 34.6407 9.7462 34.4394 9.69909Z" fill="black"/>
<path id="&#235;&#189;&#128;" d="M22.6237 2.49076C22.4421 1.92503 22.1125 1.46089 21.6879 1.05952C21.2227 0.619721 20.6432 0.608308 20.0501 0.62695C19.5184 0.643689 19.0976 0.86549 18.7646 1.26115C18.4365 1.65073 18.3188 2.12591 18.2982 2.62125C18.2751 3.17823 18.28 3.73634 18.2724 4.29408C18.2694 4.52006 18.2451 4.53376 18.029 4.48696C17.6375 4.4025 17.2463 4.33935 16.8521 4.48773C16.625 4.57333 16.5981 4.53794 16.6152 4.28837C16.6577 3.66938 16.715 3.05002 16.6448 2.42989C16.6019 2.04944 16.5069 1.68307 16.3076 1.3498C15.9255 0.711029 14.8922 0.400203 14.1259 0.587764C13.3322 0.782172 12.867 1.33116 12.5981 2.06846C12.1253 3.36617 11.9483 4.72893 11.8177 6.08941C11.6795 7.52635 11.6286 8.97091 11.7137 10.4189C11.779 11.526 11.8811 12.6183 12.3072 13.655C12.3585 13.7798 12.3285 13.8425 12.1865 13.8151C11.7034 13.7212 11.22 13.7166 10.7331 13.7866C10.5679 13.8106 10.5114 13.7208 10.5831 13.5663C10.6526 13.4168 10.7248 13.2681 10.7654 13.1079C11.0024 12.1716 11.1433 11.2194 11.2173 10.2576C11.3096 9.06184 11.2663 7.86267 11.2937 6.6654C11.3263 5.22503 11.1319 3.80901 10.7517 2.41771C10.6446 2.02547 10.4844 1.66633 10.2406 1.34523C9.98083 1.00283 9.65652 0.754019 9.22778 0.653962C8.70903 0.532979 8.21004 0.613254 7.71711 0.779889C7.16875 0.965167 6.8395 1.35969 6.67506 1.90069C6.5805 2.21189 6.55202 2.53299 6.55924 2.85941C6.57025 3.36008 6.56987 3.86113 6.57519 4.3618C6.57671 4.51512 6.53 4.58093 6.35683 4.53528C5.99758 4.44055 5.63415 4.4318 5.26807 4.51816C5.1625 4.54289 5.04743 4.66083 4.95135 4.57256C4.86135 4.48963 4.91262 4.34316 4.90844 4.22484C4.88565 3.5602 4.93122 2.89289 4.83742 2.23091C4.73679 1.52366 4.36235 1.04506 3.67006 0.832011C3.37575 0.741464 3.07574 0.723964 2.76965 0.736138C2.04622 0.764291 1.50089 1.08425 1.14696 1.71769C0.837838 2.27048 0.669986 2.87843 0.516185 3.48563C0.138328 4.9747 0.0646556 6.50219 0.00997074 8.02892C-0.0291441 9.11396 0.0494653 10.1956 0.199469 11.2711C0.327446 12.1884 0.548464 13.0771 1.05012 13.8714C1.35279 14.3512 1.73292 14.7419 2.26078 14.9869C2.94092 15.3023 3.65373 15.4762 4.39197 15.5694C5.55934 15.7162 6.72367 15.7581 7.88079 15.4857C8.04028 15.448 8.11434 15.5081 8.08396 15.6767C8.0137 16.0655 8.00497 16.4562 8.00345 16.8496C8.00269 17.1129 7.91914 17.1848 7.65635 17.1924C7.23824 17.2045 6.82127 17.1764 6.40809 17.114C5.40858 16.9633 4.42159 16.732 3.41068 16.6552C2.33294 16.5734 1.29051 17.0124 0.752773 17.9997C0.177823 19.0558 0.200608 20.1678 0.635808 21.2696C0.848091 21.8072 1.24228 22.1903 1.76444 22.4517C2.58699 22.8633 3.45891 23.1247 4.35438 23.3004C5.58972 23.5432 6.8376 23.7083 8.09231 23.8217C9.66222 23.9636 11.2344 24.0435 12.8104 24.0355C13.6648 24.0328 14.5174 23.9803 15.3699 23.9358C16.6657 23.8677 17.9542 23.7319 19.2381 23.5489C19.9889 23.442 20.7161 23.2384 21.3811 22.8702C22.2439 22.3923 22.8139 21.7007 22.8838 20.6655C22.9077 20.3101 22.9248 19.9556 22.8971 19.6021C22.8618 19.1475 22.8177 18.6898 22.6096 18.2721C22.0647 17.1772 21.1498 16.9299 20.0056 16.9211C18.9074 16.9127 17.8251 17.1912 16.7287 17.2852C16.224 17.3286 15.7212 17.3636 15.215 17.3156C15.051 17.3 14.9773 17.2099 14.9773 17.0543C14.9773 16.9086 14.9826 16.7628 14.9928 16.6175C15.0134 16.3326 15.0244 16.048 14.9872 15.7634C14.953 15.5028 15.0122 15.4541 15.2697 15.531C15.9597 15.7372 16.6699 15.8132 17.3849 15.8342C17.9477 15.8505 18.5098 15.8269 19.0703 15.7509C19.6988 15.6656 20.2973 15.4906 20.8441 15.1718C21.8243 14.6 22.3742 13.7079 22.6821 12.6396C22.9187 11.8193 23.0448 10.985 23.0911 10.132C23.1773 8.55014 23.2871 6.96976 23.1405 5.38558C23.0497 4.40593 22.9263 3.43351 22.6237 2.49114V2.49076ZM7.55875 9.89083C7.46571 10.2443 7.29292 10.5452 6.95798 10.7305C6.59 10.934 6.20227 10.9002 5.88365 10.6251C5.61516 10.393 5.45946 10.0959 5.38199 9.75197C5.3106 9.43506 5.17541 9.32549 4.85679 9.31712C4.68552 9.31255 4.51653 9.29543 4.34982 9.25396C4.16792 9.20869 4.03994 9.09532 4.00462 8.91422C3.96702 8.72172 4.03082 8.55242 4.19981 8.43372C4.4945 8.22714 4.84464 8.23094 5.17845 8.17578C5.2768 8.15942 5.3801 8.17121 5.48111 8.17045C6.01163 8.16474 6.52392 8.23969 6.99102 8.51932C7.5147 8.83319 7.71445 9.29733 7.55799 9.89159L7.55875 9.89083ZM19.1891 9.85393C19.1075 10.3337 18.82 10.6723 18.3586 10.8309C17.9811 10.9606 17.5353 10.8035 17.2858 10.4832C17.1282 10.2804 17.0219 10.0552 16.982 9.79686C16.9243 9.42364 16.7842 9.30114 16.3998 9.28022C16.2403 9.27146 16.0862 9.24597 15.935 9.1969C15.7478 9.13603 15.6369 9.00401 15.6179 8.81074C15.6001 8.62623 15.6969 8.5003 15.8583 8.4166C16.1815 8.24958 16.5297 8.20431 16.9307 8.1929C17.5148 8.23246 18.1384 8.2941 18.6738 8.67036C19.0813 8.95645 19.2731 9.35859 19.1884 9.85431L19.1891 9.85393Z" fill="black"/>
</g>
</svg>
