<svg width="12" height="12" viewBox="0 0 12 12" fill="none" xmlns="http://www.w3.org/2000/svg">
<mask id="mask0_812_2093" style="mask-type:alpha" maskUnits="userSpaceOnUse" x="0" y="0" width="12" height="12">
<path d="M6.00002 3.50001C7.0609 3.50001 8.07832 3.92144 8.82847 4.67158C9.57862 5.42173 10 6.43915 10 7.50001C10 8.56088 9.57862 9.57829 8.82847 10.3284C8.07832 11.0786 7.0609 11.5 6.00002 11.5C4.93915 11.5 3.92173 11.0786 3.17158 10.3284C2.42143 9.57829 2 8.56088 2 7.50001C2 6.43915 2.42143 5.42173 3.17158 4.67158C3.92173 3.92144 4.93915 3.50001 6.00002 3.50001ZM6.00002 4.50001C5.20437 4.50001 4.4413 4.81608 3.87869 5.37869C3.31608 5.9413 3.00001 6.70436 3.00001 7.50001C3.00001 8.29566 3.31608 9.05872 3.87869 9.62133C4.4413 10.1839 5.20437 10.5 6.00002 10.5C6.79568 10.5 7.55874 10.1839 8.12136 9.62133C8.68397 9.05872 9.00004 8.29566 9.00004 7.50001C9.00004 6.70436 8.68397 5.9413 8.12136 5.37869C7.55874 4.81608 6.79568 4.50001 6.00002 4.50001ZM6.00002 5.25001L6.66103 6.59001L8.14004 6.80501L7.07003 7.84751L7.32253 9.32051L6.00002 8.62501L4.67752 9.32001L4.93002 7.84751L3.86001 6.80451L5.33902 6.58951L6.00002 5.25001ZM9.00004 1.00001V2.50001L8.31854 3.06901C7.75317 2.77189 7.13565 2.58699 6.50003 2.52451V1.00001H9.00004ZM5.50002 0.999512V2.52451C4.8646 2.5869 4.24726 2.77163 3.68201 3.06851L3.00001 2.50001V1.00001L5.50002 0.999512Z" fill="black"/>
</mask>
<g mask="url(#mask0_812_2093)">
<rect width="11.9999" height="12" fill="white"/>
</g>
</svg>
