<svg width="24" height="24" viewBox="0 0 24 24" fill="none" xmlns="http://www.w3.org/2000/svg">
<mask id="mask0_129_1404" style="mask-type:alpha" maskUnits="userSpaceOnUse" x="0" y="0" width="24" height="24">
<path fill-rule="evenodd" clip-rule="evenodd" d="M6 4C5.46957 4 4.96086 4.21071 4.58579 4.58579C4.21071 4.96086 4 5.46957 4 6V18C4 18.5304 4.21071 19.0391 4.58579 19.4142C4.96086 19.7893 5.46957 20 6 20H12.5C13.0523 20 13.5 20.4477 13.5 21C13.5 21.5523 13.0523 22 12.5 22H6C4.93913 22 3.92172 21.5786 3.17157 20.8284C2.42143 20.0783 2 19.0609 2 18V6C2 4.93913 2.42143 3.92172 3.17157 3.17157C3.92172 2.42143 4.93913 2 6 2H18C19.0609 2 20.0783 2.42143 20.8284 3.17157C21.5786 3.92172 22 4.93913 22 6V12.5C22 13.0523 21.5523 13.5 21 13.5C20.4477 13.5 20 13.0523 20 12.5V6C20 5.46957 19.7893 4.96086 19.4142 4.58579C19.0391 4.21071 18.5304 4 18 4H6ZM14 8C14 7.44772 14.4477 7 15 7H15.01C15.5623 7 16.01 7.44772 16.01 8C16.01 8.55228 15.5623 9 15.01 9H15C14.4477 9 14 8.55228 14 8Z" fill="black"/>
<path fill-rule="evenodd" clip-rule="evenodd" d="M8.69967 11.7144L3.70711 16.7069C3.31658 17.0975 2.68342 17.0975 2.29289 16.7069C1.90237 16.3164 1.90237 15.6832 2.29289 15.2927L7.29289 10.2927L7.30661 10.2793C7.92076 9.68828 8.67726 9.33008 9.5 9.33008C10.3227 9.33008 11.0792 9.68828 11.6934 10.2793L11.7071 10.2927L15.7071 14.2927C16.0976 14.6832 16.0976 15.3164 15.7071 15.7069C15.3166 16.0975 14.6834 16.0975 14.2929 15.7069L10.3003 11.7144C9.98903 11.4172 9.71184 11.3301 9.5 11.3301C9.28816 11.3301 9.01097 11.4172 8.69967 11.7144Z" fill="black"/>
<path fill-rule="evenodd" clip-rule="evenodd" d="M15.6995 13.7146C16.1341 13.3001 16.5106 13.272 16.8203 13.3921C17.3352 13.5919 17.9145 13.3364 18.1143 12.8216C18.3141 12.3067 18.0586 11.7273 17.5437 11.5276C16.3909 11.0803 15.2097 11.4113 14.307 12.2789L14.2929 12.2927L13.2929 13.2927C12.9024 13.6833 12.9024 14.3164 13.2929 14.707C13.6834 15.0975 14.3166 15.0975 14.7071 14.707L15.6995 13.7146ZM19 14.9998C19.5523 14.9998 20 15.4476 20 15.9998V17.9998H22C22.5523 17.9998 23 18.4476 23 18.9998C23 19.5521 22.5523 19.9998 22 19.9998H20V21.9998C20 22.5521 19.5523 22.9998 19 22.9998C18.4477 22.9998 18 22.5521 18 21.9998V19.9998H16C15.4477 19.9998 15 19.5521 15 18.9998C15 18.4476 15.4477 17.9998 16 17.9998H18V15.9998C18 15.4476 18.4477 14.9998 19 14.9998Z" fill="black"/>
</mask>
<g mask="url(#mask0_129_1404)">
<rect width="24" height="24" fill="#999999"/>
</g>
</svg>
