<svg width="40" height="40" viewBox="0 0 40 40" fill="none" xmlns="http://www.w3.org/2000/svg">
<mask id="mask0_815_1286" style="mask-type:alpha" maskUnits="userSpaceOnUse" x="0" y="0" width="40" height="40">
<path fill-rule="evenodd" clip-rule="evenodd" d="M20.0003 6.6665C20.9208 6.6665 21.667 7.4127 21.667 8.33317V18.3332H31.667C32.5875 18.3332 33.3337 19.0794 33.3337 19.9998C33.3337 20.9203 32.5875 21.6665 31.667 21.6665H21.667V31.6665C21.667 32.587 20.9208 33.3332 20.0003 33.3332C19.0799 33.3332 18.3337 32.587 18.3337 31.6665V21.6665H8.33366C7.41319 21.6665 6.66699 20.9203 6.66699 19.9998C6.66699 19.0794 7.41319 18.3332 8.33366 18.3332H18.3337V8.33317C18.3337 7.4127 19.0799 6.6665 20.0003 6.6665Z" fill="black"/>
</mask>
<g mask="url(#mask0_815_1286)">
<rect width="39.9998" height="40" fill="white"/>
</g>
</svg>
