<svg width="24" height="24" viewBox="0 0 24 24" fill="none" xmlns="http://www.w3.org/2000/svg">
<path d="M14 3.07197C14.9525 3.62191 15.7813 4.36235 16.4348 5.24703C17.0882 6.13172 17.5522 7.14164 17.7978 8.21371C18.0434 9.28579 18.0653 10.397 17.8621 11.4779C17.659 12.5588 17.2351 13.5862 16.617 14.496L21.561 19.439C21.8363 19.7102 21.9962 20.0772 22.0075 20.4635C22.0188 20.8497 21.8806 21.2255 21.6217 21.5124C21.3628 21.7992 21.0032 21.9751 20.6178 22.0034C20.2324 22.0316 19.851 21.91 19.553 21.664L19.439 21.561L14.496 16.617C13.3134 17.4203 11.9371 17.892 10.5104 17.983C9.08367 18.0741 7.65861 17.7811 6.38348 17.1347C5.10835 16.4882 4.02975 15.5119 3.25989 14.3073C2.49004 13.1026 2.05706 11.7137 2.006 10.285L2 9.99997L2.005 9.71497C2.05419 8.33572 2.45937 6.99265 3.18115 5.8163C3.90292 4.63995 4.91675 3.67034 6.12409 3.0017C7.33143 2.33305 8.69122 1.98813 10.0713 2.00044C11.4514 2.01275 12.8048 2.38189 14 3.07197Z" fill="black"/>
</svg>
