<svg width="38" height="34" viewBox="0 0 38 34" fill="none" xmlns="http://www.w3.org/2000/svg">
<path d="M15.641 1.97021C17.1339 -0.615558 20.8661 -0.615558 22.359 1.97021L37.4746 28.1511C38.9675 30.7369 37.1013 33.9691 34.1156 33.9691H3.88444C0.898652 33.9691 -0.967467 30.7369 0.525428 28.1511L15.641 1.97021Z" fill="#FF9800"/>
<mask id="mask0_721_1158" style="mask-type:alpha" maskUnits="userSpaceOnUse" x="7" y="7" width="24" height="24">
<path fill-rule="evenodd" clip-rule="evenodd" d="M17.5005 11.537C17.4484 10.6411 18.2313 10 18.9997 10C19.768 10 20.5509 10.6411 20.4988 11.537L20.1245 21.6426C20.12 21.9346 20.002 22.2137 19.7951 22.4205C19.5842 22.6315 19.298 22.75 18.9997 22.75C18.7013 22.75 18.4151 22.6315 18.2042 22.4205C17.9973 22.2137 17.8794 21.9346 17.8748 21.6426L17.5005 11.537Z" fill="black"/>
<path fill-rule="evenodd" clip-rule="evenodd" d="M17.5 26.5C17.5 25.6716 18.1716 25 19 25C19.8284 25 20.5 25.6716 20.5 26.5C20.5 27.3284 19.8284 28 19 28C18.1716 28 17.5 27.3284 17.5 26.5Z" fill="black"/>
</mask>
<g mask="url(#mask0_721_1158)">
<rect x="7" y="7" width="24" height="24" fill="white"/>
</g>
</svg>
