<svg width="24" height="24" viewBox="0 0 24 24" fill="none" xmlns="http://www.w3.org/2000/svg">
<path d="M5 22C4.45 22 3.97933 21.8043 3.588 21.413C3.19667 21.0216 3.00067 20.5506 3 20V16.2C3 15.9666 3.04167 15.7333 3.125 15.5C3.20833 15.2666 3.33333 15.0583 3.5 14.875L5.05 13.125C5.23333 12.9083 5.471 12.796 5.763 12.788C6.055 12.78 6.30067 12.8756 6.5 13.075C6.68333 13.2583 6.78333 13.4833 6.8 13.75C6.81667 14.0166 6.73333 14.25 6.55 14.45L5.175 16H18.825L17.5 14.5C17.3167 14.3 17.2333 14.0666 17.25 13.8C17.2667 13.5333 17.3667 13.3083 17.55 13.125C17.75 12.925 17.996 12.829 18.288 12.837C18.58 12.845 18.8173 12.9576 19 13.175L20.5 14.875C20.6667 15.0583 20.7917 15.2666 20.875 15.5C20.9583 15.7333 21 15.9666 21 16.2V20C21 20.55 20.8043 21.021 20.413 21.413C20.0217 21.805 19.5507 22.0006 19 22H5ZM5 20H19V18H5V20ZM10.625 14.375L7.1 10.85C6.71667 10.4666 6.52933 9.99597 6.538 9.43797C6.54667 8.87997 6.74233 8.40897 7.125 8.02497L12.025 3.12497C12.4083 2.74163 12.8833 2.54163 13.45 2.52497C14.0167 2.5083 14.4917 2.69163 14.875 3.07497L18.4 6.59997C18.7833 6.9833 18.9833 7.44997 19 7.99997C19.0167 8.54997 18.8333 9.01663 18.45 9.39997L13.45 14.4C13.0667 14.7833 12.596 14.971 12.038 14.963C11.48 14.955 11.009 14.759 10.625 14.375ZM17 8.02497L13.475 4.49997L8.525 9.44997L12.05 12.975L17 8.02497Z" fill="black"/>
</svg>
