<svg width="24" height="24" viewBox="0 0 24 24" fill="none" xmlns="http://www.w3.org/2000/svg">
<path d="M8.85453 12.5187C9.24164 12.9058 9.72552 13.0993 10.2094 13.0993C10.7901 13.0993 11.1772 12.9058 11.5643 12.5187L16.4031 7.67989C16.7902 7.29278 16.9837 6.90568 16.8869 6.32502C16.8869 5.84115 16.6934 5.35727 16.3063 4.97016L12.9191 1.583C12.532 1.1959 12.0481 1.00235 11.5643 1.09912C11.0804 1.1959 10.5965 1.29268 10.2094 1.67978L5.46737 6.4218C5.08027 6.8089 4.88672 7.19601 4.88672 7.77666C4.88672 8.35732 5.08027 8.74442 5.46737 9.13153L8.85453 12.5187ZM11.5643 3.03464L14.9514 6.4218L10.1126 11.2606L6.82224 7.77666L11.5643 3.03464Z" fill="black"/>
<path d="M15.4357 18.0349H3.33874V16.0993H16.5003C17.0809 15.5187 17.9519 15.1316 18.8229 15.0348V14.3574C18.8229 14.1638 18.8229 13.8735 18.7261 13.6799C18.6293 13.4864 18.5326 13.2928 18.339 13.0993L16.8874 11.4541C16.6938 11.2605 16.5003 11.1638 16.2099 11.1638C15.9196 11.1638 15.7261 11.2605 15.5325 11.4541C15.339 11.6476 15.2422 11.8412 15.2422 12.1315C15.2422 12.4219 15.339 12.6154 15.4357 12.809L16.6938 14.2606H3.53229L4.88716 12.6154C5.08071 12.4219 5.17749 12.2283 5.08071 11.938C5.08071 11.6476 4.98393 11.4541 4.79038 11.2605C4.59683 11.067 4.40328 10.9702 4.11295 10.9702C3.82262 10.9702 3.62907 11.067 3.43552 11.2605L1.98388 13.0025C1.79033 13.1961 1.69355 13.3896 1.59678 13.5832C1.5 13.7767 1.5 14.067 1.5 14.2606V17.9381C1.5 18.5187 1.69355 18.9058 2.08066 19.2929C2.46776 19.68 2.95164 19.8736 3.43552 19.8736H15.4357C15.339 19.5833 15.339 19.2929 15.339 18.9058C15.2422 18.6155 15.339 18.3252 15.4357 18.0349Z" fill="black"/>
<path d="M19.3059 15.8092C17.5639 15.8092 16.1123 17.2608 16.1123 19.0028C16.1123 20.7448 17.5639 22.1964 19.3059 22.1964C21.0479 22.1964 22.4995 20.7448 22.4995 19.0028C22.4995 17.2608 21.0479 15.8092 19.3059 15.8092ZM21.1447 19.0028C21.1447 19.2931 21.0479 19.4867 20.9511 19.6802L18.4349 17.3576C18.7253 17.2608 18.9188 17.1641 19.2091 17.1641C20.3704 17.1641 21.1447 18.0351 21.1447 19.0028ZM17.5639 19.0028C17.5639 18.8093 17.5639 18.6157 17.6607 18.4222L19.9833 20.648C19.7898 20.7448 19.5962 20.7448 19.3059 20.7448C18.3382 20.8416 17.5639 19.9706 17.5639 19.0028Z" fill="black"/>
</svg>
