<svg width="82" height="95" viewBox="0 0 82 95" fill="#FFB300" xmlns="http://www.w3.org/2000/svg">
<g clip-path="url(#clip0_994_3982)">
<path d="M74.7563 12.2683C74.3868 12.4659 74.2708 12.8213 74.4233 13.1738C74.7986 14.038 74.9621 14.2805 75.8793 14.1747C76.6931 14.0804 77.5201 14.0173 78.3235 13.7206C78.9674 13.5898 79.6095 13.3765 80.2452 13.1276C81.0875 12.7989 81.3284 12.4694 81.278 11.5377C81.2611 11.2298 81.2448 10.9198 81.1931 10.6172C81.0338 9.67123 80.3669 9.29784 79.5342 9.72838C77.932 10.5574 76.3473 11.4187 74.7563 12.2683Z" fill="white"/>
<path d="M68.2591 9.15417C68.5101 9.14691 68.7615 9.09467 69.0072 9.03862C69.2703 8.97794 69.4647 8.8068 69.5375 8.53718C70.0121 6.77283 70.3322 4.97571 70.4482 3.14519C70.4872 2.52927 69.928 1.98378 69.3476 2.04652C68.6408 2.12256 67.9333 2.24165 67.3168 2.64224C66.9867 2.85656 66.7406 3.11929 66.7362 3.57131C66.7221 5.13216 67.0311 6.66779 67.0991 8.03593C67.2891 9.00345 67.4844 9.17544 68.2581 9.15436L68.2591 9.15417Z" fill="white"/>
<path d="M71.7395 10.1701C71.9787 10.3849 72.2386 10.5774 72.5022 10.7601C72.9935 11.1022 73.294 11.0756 73.7253 10.6487C74.1444 10.2332 74.5415 9.79639 74.9644 9.38514C76.0276 8.35278 77.1032 7.3338 78.1675 6.30221C78.8588 5.63258 78.9741 4.83316 78.44 4.04094C77.9173 3.26631 77.243 2.64396 76.405 2.22828C76.1058 2.07987 75.7992 2.0398 75.4693 2.12035C75.0838 2.15853 74.8063 2.3689 74.6292 2.72908C74.4588 3.07489 74.2808 3.41726 74.1083 3.7625C73.238 5.5023 72.3611 7.23847 71.5015 8.98303C71.2193 9.55567 71.2666 9.74444 71.7413 10.1697L71.7395 10.1701Z" fill="white"/>
</g>
<path d="M72.9981 16.1835C71.9436 14.6597 70.7702 13.2524 69.1322 12.3452C66.9802 11.1547 64.6739 11.1221 62.3629 11.666C59.9129 12.2424 58.1328 13.7048 57.2104 16.1108C56.288 18.5168 56.0543 21.018 56.4122 23.5619C56.7384 25.8777 57.0745 28.1897 57.2379 30.5255C57.4351 33.3438 57.3862 36.1608 57.3199 38.9778C57.278 40.7711 57.205 42.5643 56.9841 44.3487C56.6782 46.8312 56.3674 49.3136 56.1312 51.8023C55.9239 53.9828 56.8386 55.7183 58.6424 56.8512C63.0544 59.6218 68.7271 59.2334 72.652 55.6832C74.1937 54.2885 75.1329 52.5216 75.7211 50.5517C77.402 44.9289 78.066 39.1721 77.8823 33.3062C77.8103 31.2335 77.5831 29.1809 77.213 27.1433C76.5019 23.2198 75.2843 19.4955 72.9944 16.1835L72.9981 16.1835Z" fill="white"/>
<path d="M64.647 62.5251C62.3504 61.856 60.0089 61.4246 57.6467 61.1365C53.5727 60.639 49.4813 60.3913 45.8063 60.5762C40.9424 60.6003 36.5247 60.9286 32.1148 61.3357C30.161 61.5167 28.2071 61.7503 26.269 62.0902C24.3743 62.423 22.4724 62.7109 20.5761 63.0275C17.7904 63.4913 15.0715 64.1845 12.5049 65.4016C9.19978 66.9687 7.45932 70.6805 8.30133 74.2654C8.84404 76.5746 10.2672 78.2341 12.0457 79.648C15.2125 82.1668 18.9225 83.0943 22.8434 83.2109C27.1934 83.3413 31.3519 82.3633 35.3232 80.6152C39.3624 78.8384 42.9488 76.3701 46.12 73.2875C46.4869 72.9314 46.8985 72.5769 47.4341 72.8784C47.9495 73.1689 47.9243 73.7033 47.8552 74.2171C47.8445 74.3 47.8237 74.3806 47.803 74.4612C47.4974 75.6322 47.2542 76.8184 47.0772 78.0147C46.8815 79.3355 46.6338 80.6659 46.8734 82.0003C47.7282 86.7682 50.056 90.4435 54.5277 92.596C57.6616 94.1039 60.8252 94.3178 64.032 93.0507C67.3338 91.7455 69.4395 89.1905 70.9365 86.0358C72.027 83.7379 72.477 81.2885 72.7033 78.7827C73.0294 75.1898 72.6479 71.6996 71.1475 68.3732C69.8306 65.4559 67.755 63.428 64.6483 62.5238L64.647 62.5251Z" fill="white"/>
<path d="M18.8989 59.2762C21.3337 59.417 23.7729 59.2851 26.2086 59.3606C27.8873 59.4123 29.553 59.2537 31.2255 59.2241C34.7 59.0279 38.144 58.5987 41.5801 58.0632C43.9263 57.6971 46.2707 57.3423 48.5328 56.602C50.297 56.0245 51.7677 55.0679 52.7304 53.4459C53.8192 51.6093 54.0085 49.6594 53.6969 47.5813C53.2653 44.7105 51.187 42.3248 48.3368 41.6074C47.2178 41.3265 47.1979 41.2862 47.4846 40.2069C48.5083 36.3527 48.3632 32.5182 47.256 28.7072C47.1121 28.2123 47.1852 27.9656 47.7087 27.756C49.0449 27.2217 50.3672 26.643 51.3411 25.5239C53.1854 23.4036 53.584 20.934 53.0507 18.2903C52.5928 16.02 51.2401 14.397 49.1203 13.3522C47.4845 12.5459 45.7139 12.3579 43.9567 12.1238C41.0599 11.7382 38.1513 11.5064 35.2214 11.4315C32.4872 11.3613 29.7568 11.2922 27.0243 11.37C21.2648 11.5345 15.58 12.2821 9.96415 13.5404C8.32014 13.9086 6.75997 14.4852 5.34071 15.4074C1.36429 17.9941 0.660753 23.0997 3.81774 26.6225C4.98777 27.9287 6.47107 28.7454 8.16857 29.2014C9.30404 29.5065 9.38333 29.6411 9.17294 30.7875C8.52696 34.309 8.80976 37.7724 9.86366 41.1848C10.1875 42.234 10.1318 42.3202 9.04524 42.4227C7.65541 42.5535 6.32666 42.8865 5.16661 43.6928C3.33099 44.9676 2.52044 46.7951 2.34903 48.9335C2.00553 53.2191 4.07519 57.2953 9.16921 58.2654C12.3801 58.8771 15.6408 59.0879 18.9001 59.2761L18.8989 59.2762ZM26.6037 40.2376C26.8219 38.4141 26.9828 36.5877 27.0259 34.7507C27.0628 33.1942 26.873 31.675 26.3975 30.1867C26.1397 29.381 26.2135 29.3062 27.0881 29.2779C27.6173 29.2601 28.1449 29.2172 28.6745 29.1856C28.6747 29.1894 28.675 29.1931 28.6752 29.1969C29.2457 29.1628 29.8173 29.1261 30.3879 29.0946C31.0814 29.0556 31.2228 29.1891 31.1436 29.8806C30.9758 31.3533 30.924 32.8292 30.9125 34.3127C30.8975 36.2019 31.0672 38.06 31.587 39.8822C31.6442 40.0821 31.6758 40.2899 31.733 40.4912C31.8824 41.0134 31.7201 41.2277 31.1439 41.1705C29.939 41.0503 28.7319 41.1363 27.5262 41.2058C26.5712 41.2616 26.4886 41.1949 26.6024 40.2377L26.6037 40.2376Z" fill="white"/>
<defs>
<clipPath id="clip0_994_3982">
<rect width="13.2675" height="13.3616" fill="white" transform="matrix(0.979079 -0.203479 0.204995 0.978763 65.9814 2.69824)"/>
</clipPath>
</defs>
</svg>
