<svg width="444" height="444" viewBox="0 0 444 444" fill="none" xmlns="http://www.w3.org/2000/svg">
<g clip-path="url(#clip0_478_3276)">
<rect width="444" height="444" fill="#FFB300"/>
<g clip-path="url(#clip1_478_3276)">
<path d="M336.286 100.794C335.087 101.435 334.711 102.587 335.206 103.731C336.423 106.534 336.953 107.32 339.928 106.977C342.567 106.671 345.25 106.467 347.856 105.504C349.944 105.08 352.026 104.388 354.088 103.581C356.82 102.515 357.601 101.446 357.438 98.4242C357.383 97.4257 357.33 96.4203 357.162 95.4388C356.646 92.3707 354.483 91.1597 351.782 92.5561C346.586 95.2448 341.446 98.0382 336.286 100.794Z" fill="white"/>
<path d="M315.212 90.6945C316.026 90.671 316.842 90.5015 317.639 90.3197C318.492 90.1229 319.123 89.5679 319.358 88.6934C320.898 82.971 321.936 77.1424 322.312 71.2054C322.439 69.2078 320.625 67.4386 318.743 67.6421C316.45 67.8887 314.156 68.2749 312.156 69.5742C311.086 70.2693 310.287 71.1214 310.273 72.5875C310.227 77.6498 311.23 82.6303 311.45 87.0677C312.066 90.2057 312.7 90.7635 315.209 90.6951L315.212 90.6945Z" fill="white"/>
<path d="M326.499 93.9909C327.275 94.6875 328.118 95.3118 328.973 95.9045C330.567 97.0138 331.541 96.9278 332.94 95.543C334.299 94.1956 335.587 92.7788 336.959 91.4449C340.407 88.0967 343.896 84.7918 347.347 81.446C349.59 79.2742 349.963 76.6814 348.231 74.1119C346.536 71.5995 344.349 69.5811 341.631 68.2329C340.661 67.7516 339.666 67.6216 338.596 67.8828C337.346 68.0067 336.446 68.689 335.872 69.8571C335.319 70.9787 334.742 72.0892 334.182 73.2089C331.359 78.8516 328.515 84.4826 325.727 90.1408C324.812 91.998 324.965 92.6103 326.505 93.9897L326.499 93.9909Z" fill="white"/>
</g>
<path d="M331.213 114.025C327.556 108.739 323.485 103.858 317.804 100.711C310.339 96.5814 302.339 96.4684 294.323 98.3549C285.824 100.354 279.649 105.427 276.45 113.773C273.25 122.119 272.44 130.795 273.681 139.619C274.812 147.652 275.978 155.671 276.545 163.774C277.229 173.55 277.059 183.321 276.83 193.093C276.684 199.313 276.431 205.533 275.665 211.723C274.604 220.334 273.526 228.945 272.706 237.578C271.987 245.141 275.16 251.161 281.417 255.091C296.721 264.702 316.398 263.354 330.013 251.04C335.361 246.202 338.619 240.073 340.659 233.24C346.489 213.736 348.793 193.767 348.155 173.419C347.906 166.23 347.117 159.11 345.834 152.042C343.367 138.432 339.144 125.514 331.2 114.025L331.213 114.025Z" fill="white"/>
<path d="M302.246 274.774C294.28 272.453 286.158 270.957 277.964 269.957C263.832 268.232 249.64 267.373 236.892 268.014C220.021 268.097 204.697 269.236 189.4 270.648C182.623 271.276 175.845 272.086 169.122 273.265C162.55 274.42 155.953 275.419 149.375 276.517C139.712 278.126 130.281 280.53 121.378 284.752C109.913 290.188 103.876 303.063 106.797 315.498C108.679 323.508 113.616 329.265 119.785 334.169C130.77 342.906 143.639 346.124 157.24 346.528C172.329 346.98 186.753 343.588 200.529 337.524C214.54 331.361 226.98 322.799 237.981 312.106C239.253 310.871 240.681 309.641 242.539 310.687C244.327 311.695 244.239 313.548 243.999 315.331C243.962 315.618 243.89 315.898 243.818 316.177C242.758 320.239 241.915 324.354 241.301 328.504C240.622 333.085 239.763 337.7 240.594 342.329C243.559 358.867 251.633 371.616 267.145 379.083C278.015 384.313 288.989 385.055 300.113 380.66C311.566 376.132 318.87 367.27 324.063 356.327C327.845 348.356 329.406 339.859 330.191 331.168C331.322 318.705 329.999 306.598 324.794 295.06C320.227 284.94 313.027 277.906 302.25 274.77L302.246 274.774Z" fill="white"/>
<path d="M143.557 263.504C152.003 263.992 160.464 263.535 168.913 263.796C174.736 263.976 180.514 263.426 186.315 263.323C198.367 262.642 210.314 261.154 222.233 259.296C230.371 258.026 238.503 256.796 246.35 254.228C252.469 252.224 257.571 248.906 260.91 243.28C264.687 236.909 265.344 230.146 264.263 222.937C262.766 212.979 255.557 204.704 245.67 202.215C241.788 201.241 241.719 201.101 242.714 197.357C246.265 183.988 245.761 170.687 241.921 157.467C241.422 155.751 241.675 154.895 243.491 154.168C248.126 152.315 252.713 150.307 256.091 146.425C262.488 139.071 263.871 130.504 262.021 121.334C260.433 113.459 255.741 107.829 248.388 104.205C242.713 101.408 236.572 100.756 230.477 99.9439C220.428 98.6061 210.339 97.8021 200.176 97.5425C190.692 97.299 181.221 97.059 171.742 97.3291C151.764 97.8997 132.045 100.493 112.565 104.858C106.862 106.135 101.45 108.135 96.5272 111.334C82.734 120.306 80.2936 138.017 91.2444 150.236C95.3029 154.767 100.448 157.6 106.336 159.182C110.275 160.24 110.55 160.707 109.82 164.683C107.58 176.899 108.56 188.913 112.216 200.749C113.34 204.388 113.146 204.687 109.377 205.043C104.556 205.497 99.9472 206.652 95.9233 209.449C89.556 213.871 86.7444 220.21 86.1498 227.627C84.9583 242.493 92.1374 256.632 109.807 259.997C120.945 262.119 132.256 262.85 143.561 263.503L143.557 263.504ZM170.283 197.464C171.04 191.138 171.598 184.803 171.748 178.431C171.876 173.032 171.217 167.762 169.568 162.599C168.674 159.805 168.93 159.545 171.964 159.447C173.799 159.385 175.629 159.237 177.466 159.127C177.467 159.14 177.468 159.153 177.469 159.166C179.448 159.048 181.43 158.921 183.41 158.811C185.815 158.676 186.306 159.139 186.031 161.538C185.449 166.646 185.269 171.766 185.229 176.911C185.177 183.465 185.766 189.91 187.569 196.231C187.768 196.924 187.877 197.645 188.076 198.343C188.594 200.154 188.031 200.898 186.032 200.699C181.853 200.283 177.665 200.581 173.483 200.822C170.17 201.015 169.884 200.784 170.279 197.464L170.283 197.464Z" fill="white"/>
</g>
<defs>
<clipPath id="clip0_478_3276">
<rect width="444" height="444" rx="80" fill="white"/>
</clipPath>
<clipPath id="clip1_478_3276">
<rect width="43.031" height="43.336" fill="white" transform="matrix(0.979079 -0.203479 0.204995 0.978763 307.825 69.7559)"/>
</clipPath>
</defs>
</svg>
